<svg xmlns="http://www.w3.org/2000/svg" viewBox="0 0 1200 675" width="1200" height="675" fill="none">
  <defs>
    <linearGradient id="bg" x1="0" y1="0" x2="1200" y2="675" gradientUnits="userSpaceOnUse">
      <stop stop-color="#0b1220"/><stop offset="1" stop-color="#16223a"/>
    </linearGradient>
    <radialGradient id="glow" cx="600" cy="320" r="360" gradientUnits="userSpaceOnUse">
      <stop stop-color="#2ea667" stop-opacity="0.3"/><stop offset="1" stop-color="#2ea667" stop-opacity="0"/>
    </radialGradient>
    <pattern id="dots" width="36" height="36" patternUnits="userSpaceOnUse">
      <circle cx="2" cy="2" r="1.3" fill="#ffffff" opacity="0.05"/>
    </pattern>
  </defs>
  <rect width="1200" height="675" fill="url(#bg)"/>
  <rect width="1200" height="675" fill="url(#dots)"/>
  <rect width="1200" height="675" fill="url(#glow)"/>
  <text x="80" y="108" font-family="Arial, Helvetica, sans-serif" font-size="28" letter-spacing="9" fill="#9fb3c8" opacity="0.65">02 — BOCETO</text>
  <text x="1130" y="620" text-anchor="end" font-family="Arial, Helvetica, sans-serif" font-size="260" font-weight="700" fill="#ffffff" opacity="0.04">02</text>
  <g stroke="#2ea667" stroke-width="4" stroke-linecap="round" fill="none" opacity="0.8" stroke-dasharray="2 14">
    <path d="M360 470 C 480 360, 560 540, 700 420 S 880 320, 940 380"/>
  </g>
  <g stroke="#cdd8e6" stroke-width="4" stroke-linecap="round" stroke-linejoin="round" fill="none" opacity="0.55">
    <rect x="380" y="250" width="220" height="150" rx="10"/>
    <path d="M380 300 h220 M420 250 v150"/>
  </g>
  <g stroke="#e8f3ee" stroke-width="9" stroke-linecap="round" stroke-linejoin="round" fill="none">
    <path d="M690 300 l150 -150 60 60 -150 150 -84 24 24 -84Z"/>
    <path d="M786 204 l60 60" stroke="#f4b860" stroke-width="9"/>
    <path d="M666 408 l36 -12" />
  </g>
</svg>
